<svg version="1.2" xmlns="http://www.w3.org/2000/svg" width="64" height="64"><path fill-rule="evenodd" d="M56.6 56.5C50 61.4 40.4 64 32.2 64c-11.6 0-22-4.3-29.9-11.4-.6-.6-.1-1.3.6-.9 8.6 5 19.1 7.9 30 7.9q2.9 0 5.8-.3t5.8-.9q2.9-.6 5.7-1.4 2.8-.9 5.5-2c1.1-.5 2 .7.9 1.5zm2.8-3.1c-.9-1.1-5.6-.5-7.7-.3-.7.1-.8-.5-.2-.9 3.8-2.6 10-1.9 10.7-1 .7.9-.2 7.1-3.7 10.1-.6.5-1.1.2-.8-.4.8-2 2.6-6.4 1.7-7.5z" style="fill:#f90"/><path fill-rule="evenodd" d="M45.6 48.9c-.6.5-1.4.5-2 .2-2.9-2.4-3.4-3.5-5-5.8-4.8 4.9-8.2 6.3-14.3 6.3-7.3 0-13-4.5-13-13.5 0-7.1 3.8-11.9 9.2-14.2 4.7-2.1 11.3-2.4 16.4-3v-1.1c0-2.1.1-4.5-1.1-6.3-1-1.6-3.1-2.2-4.9-2.2-3.3 0-6.2 1.7-6.9 5.2-.2.8-.8 1.5-1.6 1.6l-8.4-1c-.7-.2-1.5-.7-1.3-1.8C14.7 3.1 23.9 0 32.1 0c4.3 0 9.8 1.1 13.1 4.3 4.3 4 3.9 9.2 3.9 15v13.5c0 4.1 1.6 5.8 3.2 8 .6.8.7 1.8 0 2.4q-.9.7-1.7 1.4-.8.7-1.7 1.4-.8.7-1.6 1.5-.8.7-1.7 1.4zm-8.7-23.1c-6.3 0-13 1.4-13 8.8 0 3.7 2 6.3 5.3 6.3 2.4 0 4.6-1.5 6-4 1.7-3 1.7-5.8 1.7-9.2v-1.9z" style="fill:#221f1f"/></svg>