<svg version="1.2" xmlns="http://www.w3.org/2000/svg" width="1024" height="1024"><defs><radialGradient id="c" cx="0" cy="0" r="1" href="#a" gradientTransform="matrix(526 -225.4 225.4 526 261.8 915.1)"><stop stop-color="#00bbec"/><stop offset="1" stop-color="#2756a9"/></radialGradient><radialGradient id="d" cx="0" cy="0" r="1" href="#a" gradientTransform="matrix(-347 -399.3 399.3 -347 828 722)"><stop stop-color="#00cacc"/><stop offset="1" stop-color="#048fce"/></radialGradient><linearGradient id="a" gradientUnits="userSpaceOnUse"/><linearGradient id="b" x2="1" href="#a" gradientTransform="matrix(0 884.4 -234.512 0 291.4 0)"><stop stop-color="#00bbec"/><stop offset="1" stop-color="#2756a9"/></linearGradient></defs><path d="M173 778.3c14.6 123.8 223.8 143 236.8 79.9-.3-.4-.5-678.1-.5-678.1-3.6-46-26.2-72-61.6-96.5-33-22.7-74.4-50.4-96.9-66.4-63.6-45.2-77.7 14.2-77.8 16 0 0 .3 746.4 0 745.1z" style="fill:url(#b)"/><path d="M409.8 832.8c-96.2 72.5-217 42.7-234.4-44-.8-4.2-2.4-10.4-2.4-10.4s.9 8.5 2 16.6c1.2 8.5 3.7 20.8 6.3 31.3 30 117.8 132.1 186 230.4 196.6C546.3 1034.8 670.4 931 772 855.8c6.3-6.2 15.4-16.2 18.1-20.1 66.2-95-13.6-197-72.5-193q-38.5 23.6-77 47.3-38.5 23.8-77 47.5-38.5 23.8-76.9 47.6-38.4 23.8-76.8 47.7z" style="fill:url(#c)"/><path fill-rule="evenodd" d="M485.8 381c7.4 47 34.6 108.7 59.6 172.6 20.2 41.3 62 53.4 103 65.5 42.4 12.6 65.6 21 85.6 30.9 138.5 68.7 38.5 207.7 59.6 181.4 89-110.7 79.7-325.4-90-418.1-57.6-28.7-115.4-66.6-156.5-83.6-41-17-68.7 4.3-61.3 51.3z" style="fill:url(#d)"/></svg>