<svg version="1.2" xmlns="http://www.w3.org/2000/svg" viewBox="0 0 193 78" width="193" height="78"><path d="M142.5 52.2c0 2.8.1 5.6.3 8h-8.9c-.2-2-.3-4-.3-6-4.9 5.9-10.6 7.6-18.6 7.6-11.8 0-18.1-6.2-18.1-13.4 0-10.5 8.6-14.2 23.5-14.5 4.1-.1 8.7-.1 12.5-.1v-1c0-7-4.5-9.9-12.3-9.9-5.7 0-10 2.4-10.4 6.5h-10.1c1.1-10.3 11.9-12.9 21.4-12.9 11.4 0 21 4.1 21 16.1zm-21.4-11.9c-8.7.3-14.1 1.9-14.1 7.6 0 3.7 3 7.7 10.5 7.7 10 0 15.4-5.4 15.4-14.4v-1c-3.5 0-7.9 0-11.8.1z" style="fill:#ffbd14"/><path d="M9.7 41.6c.5 8.7 6.5 13.9 14.8 13.9 5.7 0 10.8-2.4 12.5-7.4h9.9c-2 10.2-12.9 13.7-22.3 13.7C7.5 61.8-.1 52.4-.1 39.7c0-14 7.9-23.2 24.9-23.2 13.5 0 23.4 7.1 23.4 22.6v2.5zm28.5-6.4c-.4-9-6.9-12.3-13.8-12.3-7.5 0-13.4 3.8-14.5 12.3z" style="fill:#f02d2d"/><path d="M48.2-.4h9.6v24.1c4.7-5.6 11.2-7.2 17.5-7.2 10.7 0 22.6 7.2 22.6 22.8 0 13-9.4 22.5-22.7 22.5-7 0-13.5-2.5-17.6-7.4 0 2-.1 4-.3 5.8h-9.4c.1-3 .3-6.8.3-9.9zm24.6 55.7c8.9 0 15-6.4 15-16.1 0-9.7-6.1-16.1-15-16.1s-15 6.4-15 16.1c0 9.7 6.1 16.1 15 16.1z" style="fill:#0968f6"/><path d="m191.3 18.1-29.6 58.3h-10.8l8.6-16.2-22.4-42.1h11.3L164.8 51l16.4-32.9z" style="fill:#92c821"/></svg>