<svg version="1.2" xmlns="http://www.w3.org/2000/svg" width="627" height="627"><style>.a{fill:#25f4ee}.b{fill:#fe2c55}</style><path class="a" d="M252.1 246.7v-24.4q-3.1-.5-6.3-.9-3.2-.4-6.4-.7l-6.4-.4q-3.3-.2-6.5-.2c-83-.2-156.5 53.6-181.4 132.8-24.9 79.2 4.5 165.4 72.6 212.8-24.9-26.8-41.7-60.2-48.1-96.2-6.4-36-2.3-73.2 12-106.9 14.2-33.7 37.8-62.6 68.1-83.2 30.3-20.5 65.8-31.9 102.4-32.7z"/><path class="a" d="M256.7 523.1c46.4-.1 84.6-36.7 86.6-83V26.3h75.6q-.6-3.2-1-6.5-.4-3.2-.7-6.5-.3-3.3-.4-6.6-.1-3.3-.1-6.6H313.3v413.4c-1.7 46.6-39.9 83.5-86.6 83.6q-5.2-.1-10.3-.7-5.2-.7-10.3-2-5-1.2-9.9-3.1-4.8-1.8-9.5-4.2c4 5.5 8.6 10.5 13.8 15 5.2 4.4 10.9 8.2 16.9 11.4 6.1 3.1 12.5 5.5 19.1 7.1 6.6 1.6 13.4 2.4 20.2 2.5zm303.4-356.4v-23q-10.4 0-20.6-1.5-10.3-1.5-20.2-4.5-10-3-19.4-7.4-9.4-4.4-18-10.2c5 5.9 10.5 11.3 16.5 16.3 5.9 4.9 12.2 9.4 18.8 13.4 6.6 3.9 13.6 7.3 20.8 10.2 7.1 2.8 14.5 5.1 22.1 6.7z"/><path class="b" d="M481.9 120.1c-5.6-6.4-10.7-13.4-15.1-20.7-4.4-7.3-8.1-15.1-11.2-23.1-3-8-5.3-16.2-6.8-24.7-1.5-8.4-2.3-16.9-2.3-25.5h-27.6c1.8 9.6 4.5 18.9 8.2 27.9 3.7 9 8.2 17.5 13.6 25.6 5.4 8.1 11.6 15.5 18.5 22.4 7 6.8 14.6 12.8 22.7 18.1zM226.5 323.5c-19.3.1-38.1 6.6-53.3 18.6-15.2 12-25.9 28.8-30.5 47.6-4.6 18.8-2.8 38.6 5.1 56.2 8 17.7 21.6 32.1 38.7 41.2-9.3-13-14.9-28.2-16.2-44.1-1.2-16 2-31.9 9.3-46.1 7.2-14.2 18.3-26.2 31.9-34.5 13.6-8.3 29.3-12.7 45.2-12.7q3.3 0 6.5.3 3.3.3 6.5.8t6.3 1.2q3.2.7 6.3 1.7V248.5q-3.2-.5-6.3-.8-3.2-.4-6.4-.7-3.2-.2-6.4-.3-3.3-.2-6.5-.2h-4.6v80q-3.1-.9-6.3-1.5-3.1-.6-6.4-.9-3.2-.4-6.4-.6-3.2-.1-6.5 0z"/><path class="b" d="M560.1 166.7v80c-12.8 0-25.5-1.1-38.2-3.1-12.6-2-25-5-37.2-8.9-12.1-4-23.9-8.9-35.3-14.7-11.4-5.7-22.3-12.4-32.7-19.9v210.2c-.2 104.8-85.3 189.8-190.2 189.8-9.6 0-19.3-.8-28.8-2.2-9.6-1.5-19-3.7-28.2-6.6-9.3-2.9-18.2-6.5-26.9-10.8-8.6-4.3-17-9.3-24.9-14.8 26 27.9 59.8 47.3 96.9 55.8 37.2 8.4 76 5.5 111.5-8.4 35.5-14 66-38.3 87.4-69.8 21.5-31.5 33-68.7 33-106.8V226.9c10.4 7.4 21.3 14.1 32.8 19.8 11.4 5.7 23.2 10.6 35.4 14.5 12.1 3.9 24.6 6.8 37.2 8.8 12.7 1.9 25.4 2.9 38.2 2.9v-103q-3.8 0-7.6-.2-3.7-.2-7.5-.6-3.8-.4-7.5-1t-7.4-1.4z"/><path d="M416.7 410.3V200.1c10.4 7.4 21.3 14.1 32.8 19.8 11.4 5.8 23.2 10.6 35.4 14.5 12.1 3.9 24.6 6.8 37.2 8.8 12.7 2 25.4 2.9 38.2 2.9v-80c-7.6-1.6-15-3.8-22.1-6.6-7.2-2.8-14.2-6.1-20.8-10-6.7-3.9-13-8.4-19-13.3-5.9-4.9-11.4-10.3-16.5-16.1-8.1-5.3-15.7-11.3-22.7-18.1-6.9-6.9-13.1-14.3-18.5-22.4-5.4-8.1-9.9-16.6-13.6-25.6-3.7-9-6.4-18.3-8.2-27.9h-75.6v414c-.7 18-7 35.3-18.1 49.6-11 14.2-26.3 24.7-43.5 29.9-17.3 5.2-35.7 4.9-52.8-.8-17.1-5.8-32-16.7-42.6-31.3-17.1-9-30.7-23.5-38.7-41.2-7.9-17.6-9.7-37.4-5.1-56.2 4.6-18.8 15.3-35.6 30.5-47.6s34-18.5 53.3-18.6q3.3 0 6.5.3 3.3.2 6.5.7 3.2.5 6.4 1.3 3.1.7 6.2 1.7v-80c-36.8.6-72.6 11.9-103 32.6-30.5 20.6-54.3 49.6-68.5 83.5-14.3 34-18.4 71.3-11.8 107.5 6.6 36.2 23.6 69.7 48.9 96.4 8 5.3 16.4 10.1 25.1 14.2 8.7 4.1 17.7 7.6 26.9 10.3 9.3 2.7 18.7 4.7 28.2 6 9.6 1.3 19.2 1.8 28.8 1.7 104.9 0 190-85 190.2-189.8z"/></svg>